<svg xmlns="http://www.w3.org/2000/svg" width="512" height="512" viewBox="0 0 512 512">
  <rect width="512" height="512" rx="50" fill="#1976d2" />
  <path d="M256,110 C183.7,110 126,167.7 126,240 C126,312.3 183.7,370 256,370 C328.3,370 386,312.3 386,240 C386,167.7 328.3,110 256,110 Z M256,330 C205.7,330 165,289.3 165,240 C165,190.7 205.7,150 256,150 C306.3,150 347,190.7 347,240 C347,289.3 306.3,330 256,330 Z" fill="white" />
  <path d="M256,180 C222.4,180 196,206.4 196,240 C196,273.6 222.4,300 256,300 C289.6,300 316,273.6 316,240 C316,206.4 289.6,180 256,180 Z" fill="white" />
  <path d="M186,100 L186,40 L226,40 L226,100 Z" fill="white" />
  <path d="M286,100 L286,40 L326,40 L326,100 Z" fill="white" />
  <path d="M186,440 L186,380 L226,380 L226,440 Z" fill="white" />
  <path d="M286,440 L286,380 L326,380 L326,440 Z" fill="white" />
  <path d="M100,186 L40,186 L40,226 L100,226 Z" fill="white" />
  <path d="M100,286 L40,286 L40,326 L100,326 Z" fill="white" />
  <path d="M440,186 L380,186 L380,226 L440,226 Z" fill="white" />
  <path d="M440,286 L380,286 L380,326 L440,326 Z" fill="white" />
</svg> 